# xmcd
#
# Track frame offsets:
#	150
#	14779
#	31749
#	47110
#	60667
#	76497
#	92717
#	109345
#	127980
#	142954
#	156016
#	171767
#	184807
#	200036
#	219847
#	236187
#	250748
#	265016
#	284139
#	299355
#	316653
#	330771
#
# Disc length: 4655 seconds
#
# Revision: 2
# Processed by: cddbd v1.5.2PL0 Copyright (c) Steve Scherf et al.
# Submitted via: audiograbber 1.83.01
#
DISCID=3d122d16
DTITLE=Bellamy Brothers - The Sound Of The Bellamy Brothers CD1
DYEAR=2016
DGENRE=Country
TTITLE0=Bellamy Brothers - If I Say You Have A Beautiful Body (Would You Hold I
TTITLE0=t Agaunst Me) (2016)
TTITLE1=Bellamy Brothers - Too Much Is Not Enough  (2016)
TTITLE2=Bellamy Brothers - Dancin Cowboys  (2016)
TTITLE3=Bellamy Brothers - Do You Love As Good As You Look  (2016)
TTITLE4=Bellamy Brothers - Lie To You For Your Love  (2016)
TTITLE5=Bellamy Brothers - Feelin That Feelin  (2016)
TTITLE6=Bellamy Brothers - Santa Fe  (2016)
TTITLE7=Bellamy Brothers - World's Greatest Lover  (2016)
TTITLE8=Bellamy Brothers - Big Love  (2016)
TTITLE9=Bellamy Brothers - Hillbilly Hell  (2016)
TTITLE10=Bellamy Brothers - Cowboy Beat  (2016)
TTITLE11=Bellamy Brothers - Love By The Moon  (2016)
TTITLE12=Bellamy Brothers - Can I Come On Home To You  (2016)
TTITLE13=Bellamy Brothers - We Dared The Lightling  (2016)
TTITLE14=Bellamy Brothers - Sugar Daddy  (2016)
TTITLE15=Bellamy Brothers - I Could Be Parsuaded  (2016)
TTITLE16=Bellamy Brothers - What'll I Do  (2016)
TTITLE17=Bellamy Brothers - She's Awesome  (2016)
TTITLE18=Bellamy Brothers - The Center Of My Universe  (2016)
TTITLE19=Bellamy Brothers - A Hard Way To Make An Easy Livin'  (2016)
TTITLE20=Bellamy Brothers - Rebels Withaut A Clue  (2016)
TTITLE21=Bellamy Brothers - I'll Give You All My Love Tonight  (2016)
EXTD=
EXTT0=
EXTT1=
EXTT2=
EXTT3=
EXTT4=
EXTT5=
EXTT6=
EXTT7=
EXTT8=
EXTT9=
EXTT10=
EXTT11=
EXTT12=
EXTT13=
EXTT14=
EXTT15=
EXTT16=
EXTT17=
EXTT18=
EXTT19=
EXTT20=
EXTT21=
PLAYORDER=
